<?xml version="1.0" standalone="no"?><!DOCTYPE svg PUBLIC "-//W3C//DTD SVG 1.1//EN" "http://www.w3.org/Graphics/SVG/1.1/DTD/svg11.dtd"><svg t="1571119436205" class="icon" viewBox="0 0 1024 1024" version="1.1" xmlns="http://www.w3.org/2000/svg" p-id="2202" xmlns:xlink="http://www.w3.org/1999/xlink" width="200" height="200"><defs><style type="text/css"></style></defs><path d="M774 184m-72 0a72 72 0 1 0 144 0 72 72 0 1 0-144 0Z" fill="#FCC419" p-id="2203"></path><path d="M774 184m-57.44 0a57.44 57.44 0 1 0 114.88 0 57.44 57.44 0 1 0-114.88 0Z" fill="#FFD43B" p-id="2204"></path><path d="M786.32 168.2a4 4 0 0 1-5.02-0.88 7.12 7.12 0 0 0-1.78-1.6 9.7 9.7 0 0 0-10.48 0.84 6.16 6.16 0 0 0-2.32 4.92q0 4 6 6.58l5.56 2.28a23.8 23.8 0 0 1 10 6.7 15.12 15.12 0 0 1 3.14 9.7 17.06 17.06 0 0 1-5.14 12.72 17.62 17.62 0 0 1-12.84 5.06 17.18 17.18 0 0 1-12-4.3 17.7 17.7 0 0 1-4.68-7.38 4.32 4.32 0 0 1 3.1-5.66 4.32 4.32 0 0 1 5.06 3.12 8.32 8.32 0 0 0 1.26 2.74 9.62 9.62 0 0 0 14.14 0.98 9.14 9.14 0 0 0 2.6-6.68 9.4 9.4 0 0 0-0.46-2.98 7.58 7.58 0 0 0-1.4-2.5 11.3 11.3 0 0 0-2.48-2.14 23.86 23.86 0 0 0-3.62-1.9l-5.38-2.24q-11.46-4.84-11.46-14.18a13.44 13.44 0 0 1 4.8-10.52 17.38 17.38 0 0 1 12-4.26 15.8 15.8 0 0 1 12.3 5.5 4 4 0 0 1-0.9 6.08z" fill="#F08C00" p-id="2205"></path><path d="M774 223.04a4.42 4.42 0 0 1-4.42-4.42v-5.02a4.42 4.42 0 1 1 8.84 0v5.02a4.42 4.42 0 0 1-4.42 4.42zM774 162.24a4.42 4.42 0 0 1-4.42-4.42v-5.04a4.42 4.42 0 0 1 8.84 0v5.02a4.42 4.42 0 0 1-4.42 4.44z" fill="#F08C00" p-id="2206"></path><path d="M814.6 636.22a20.8 20.8 0 0 1-15.58-6.86 24.54 24.54 0 0 1-5.24-24.96 41.48 41.48 0 0 1 9.14-15.1 32.32 32.32 0 0 0-26.36 5.6 5.88 5.88 0 0 1-7.14-9.34 44.86 44.86 0 0 1 44.22-5.22 42.32 42.32 0 0 1 13.72-6c12.52-2.64 26.44 0.64 38.18 8.96a5.88 5.88 0 0 1-6.78 9.6c-8.94-6.34-19.78-8.98-29-7.04a23.38 23.38 0 0 0-4.34 1.4 33.82 33.82 0 0 1 10.78 15.8 27.16 27.16 0 0 1-4.94 25.54 22.22 22.22 0 0 1-16.46 7.54z m0.24-42a33.1 33.1 0 0 0-9.9 13.88 12.7 12.7 0 0 0 2.74 13.4 9.48 9.48 0 0 0 7 3.02 10.48 10.48 0 0 0 7.76-3.56 15.16 15.16 0 0 0 2.54-14.26 23.66 23.66 0 0 0-10.14-12.56z" fill="#FA5252" p-id="2207"></path><path d="M784.7 608.6c0 71.52-34.52 136.16-90 182.4a28.36 28.36 0 0 0-9.84 16.9L670 896.26a18.8 18.8 0 0 1-18.5 15.72h-76a18.78 18.78 0 0 1-18.52-15.86l-4.72-29.48a9.38 9.38 0 0 0-10.7-7.8 350 350 0 0 1-107.34 0.36 9.38 9.38 0 0 0-10.64 7.82l-4.66 29.1a18.78 18.78 0 0 1-18.52 15.88h-76a18.8 18.8 0 0 1-18.5-15.72l-14.36-86.14a28.5 28.5 0 0 0-10-17.12c-36-29.34-63.56-66.32-78.88-108h-23.2A23.5 23.5 0 0 1 156 661.56v-106a23.5 23.5 0 0 1 23.46-23.54h23.08c15.18-41.18 42.26-77.86 77.78-107.06-5.08-15.72-12.14-38-18.6-58.34a23.48 23.48 0 0 1 32.72-28.22l73.88 36.48A340.58 340.58 0 0 1 486.78 354c164.54 0 297.92 114 297.92 254.6z" fill="#FF6B6B" p-id="2208"></path><path d="M392.94 450.52a16.48 16.48 0 0 1-4.38-32.36l0.88-0.24c26.36-7.36 62.46-17.42 106.74-17.42s64.66 5.64 101.32 16l6.3 1.76a16.48 16.48 0 0 1-8.8 31.74l-6.32-1.76c-36-10-52.54-14.7-92.5-14.7s-73.4 9.38-98 16.22l-0.88 0.24a16.34 16.34 0 0 1-4.36 0.52z" fill="#FFC9C9" p-id="2209"></path><path d="M286.8 798.8c40.2 30.5 90.2 51.9 145.48 60.34a9.4 9.4 0 0 0-8.7 7.88l-4.64 29.12a18.78 18.78 0 0 1-18.54 15.84h-76a18.78 18.78 0 0 1-18.5-15.72l-14.36-86.12a28.16 28.16 0 0 0-4.74-11.34zM539.64 859.1l2-0.28a9.32 9.32 0 0 1 10.7 7.8l4.72 29.46a18.78 18.78 0 0 0 18.54 15.84h76a18.78 18.78 0 0 0 18.5-15.72l14.72-88.2a28.26 28.26 0 0 1 9.82-16.9c2.54-2.12 5.04-4.26 7.48-6.5-42.66 37.92-99.1 64.7-162.48 74.5zM175.02 580.44c0 11.42-8.24 20.7-18.38 20.7H156v-41.38h0.62c10.16-0.02 18.4 9.24 18.4 20.68zM175.02 636.74c0 11.42-8.24 20.7-18.38 20.7H156V616h0.62c10.16 0 18.4 9.3 18.4 20.74z" fill="#FA5252" p-id="2210"></path><path d="M309.38 518.9a14.92 14.92 0 0 1-12.32 18.42l-6.36 0.9-16.34 2.36a9.3 9.3 0 0 1-9.6-13.4 115.54 115.54 0 0 1 13.24-20.7c6.44-8 11.02-13.56 16.14-13.06 6.7 0.64 11.32 11.38 14.22 21.84 0.4 1.22 0.72 2.44 1.02 3.64z" fill="#FFC9C9" p-id="2211"></path><path d="M297.06 537.32l-6.36 0.9a14.72 14.72 0 0 1 10.72-24.76 14.34 14.34 0 0 1 7 1.8c0.34 1.22 0.66 2.46 0.96 3.66a14.92 14.92 0 0 1-12.32 18.4z" fill="#495057" p-id="2212"></path><path d="M580 318m-120 0a120 120 0 1 0 240 0 120 120 0 1 0-240 0Z" fill="#FCC419" p-id="2213"></path><path d="M580 318m-95.74 0a95.74 95.74 0 1 0 191.48 0 95.74 95.74 0 1 0-191.48 0Z" fill="#FFD43B" p-id="2214"></path><path d="M600.54 291.68a6.58 6.58 0 0 1-8.38-1.46 11.86 11.86 0 0 0-2.98-2.66 16.18 16.18 0 0 0-17.48 1.38 10.28 10.28 0 0 0-3.86 8.2q0 6.82 10.12 10.96l9.28 3.8q11.32 4.58 16.58 11.18a25.2 25.2 0 0 1 5.24 16.18 28.44 28.44 0 0 1-8.56 21.22 29.38 29.38 0 0 1-21.4 8.44 28.62 28.62 0 0 1-20-7.18 29.5 29.5 0 0 1-7.82-12.3 7.2 7.2 0 0 1 5.18-9.44 7.22 7.22 0 0 1 8.44 5.2 13.86 13.86 0 0 0 2 4.56 16 16 0 0 0 23.56 1.62 15.22 15.22 0 0 0 4.34-11.14 15.66 15.66 0 0 0-0.76-4.98 12.64 12.64 0 0 0-2.34-4.16 18.82 18.82 0 0 0-4.12-3.56 39.78 39.78 0 0 0-6-3.16l-8.98-3.74q-19.1-8-19.1-23.62a22.42 22.42 0 0 1 8-17.54 28.96 28.96 0 0 1 20-7.12 26.32 26.32 0 0 1 20.5 9.2 6.62 6.62 0 0 1-1.46 10.12z" fill="#F08C00" p-id="2215"></path><path d="M580 383.08a7.38 7.38 0 0 1-7.38-7.38v-8.36a7.38 7.38 0 0 1 14.74 0v8.36a7.38 7.38 0 0 1-7.36 7.38zM580 281.72a7.38 7.38 0 0 1-7.38-7.38V266a7.38 7.38 0 0 1 14.74 0v8.36a7.38 7.38 0 0 1-7.36 7.36z" fill="#F08C00" p-id="2216"></path></svg>