<?xml version="1.0" standalone="no"?><!DOCTYPE svg PUBLIC "-//W3C//DTD SVG 1.1//EN" "http://www.w3.org/Graphics/SVG/1.1/DTD/svg11.dtd"><svg t="1571119654631" class="icon" viewBox="0 0 1024 1024" version="1.1" xmlns="http://www.w3.org/2000/svg" p-id="3142" xmlns:xlink="http://www.w3.org/1999/xlink" width="200" height="200"><defs><style type="text/css"></style></defs><path d="M126 234m73.08 0l553.84 0q73.08 0 73.08 73.08l0 345.84q0 73.08-73.08 73.08l-553.84 0q-73.08 0-73.08-73.08l0-345.84q0-73.08 73.08-73.08Z" fill="#B197FC" p-id="3143"></path><path d="M826 726L476 425.3 126 726h700z" fill="#A486FB" p-id="3144"></path><path d="M126 234l325.46 284.6a36.72 36.72 0 0 0 49.08 0L826 234z" fill="#9775FA" p-id="3145"></path><path d="M517.7 870.9l27-80.9a19.86 19.86 0 0 0-1.52-15.72 201.84 201.84 0 0 1-23.52-110.92c7.12-97.26 84.92-177.06 182-186.34a202.54 202.54 0 0 1 221.28 222.42c-9.54 94.9-86.42 171.36-181.32 180.54a202 202 0 0 1-107.78-19.04 19.62 19.62 0 0 0-13.54-1.42l-90.86 24a9.76 9.76 0 0 1-11.74-12.62zM512 888" fill="#FCC419" p-id="3146"></path><path d="M720.16 848.14a166.4 166.4 0 0 1-72.86-16.62 54.68 54.68 0 0 0-23.6-5.44 53.06 53.06 0 0 0-13.46 1.74l-47.22 12.42 12.7-38.24a54.3 54.3 0 0 0-3.84-42.72 168.22 168.22 0 0 1-19.54-92.22c6-80.6 70.88-147.14 151.16-154.8 5.54-0.52 11.14-0.8 16.66-0.8a168.32 168.32 0 0 1 16.78 335.78c-5.6 0.62-11.24 0.9-16.78 0.9z" fill="#FFD43B" p-id="3147"></path><path d="M762.5 683.82q-9.3-11.72-29.42-19.84l-16.48-6.74q-18-7.38-18-19.48a18.24 18.24 0 0 1 6.84-14.54 28.72 28.72 0 0 1 31.02-2.46 21.06 21.06 0 0 1 5.28 4.72 11.66 11.66 0 1 0 17.52-15.38 46.52 46.52 0 0 0-26-15.3v-12.34a13.08 13.08 0 1 0-26.18 0v13.42a48.4 48.4 0 0 0-19.56 10.56 39.8 39.8 0 0 0-14.24 31.14q0 27.6 34 42l16 6.64a70.6 70.6 0 0 1 10.7 5.62 33.4 33.4 0 0 1 7.32 6.32 22.44 22.44 0 0 1 4.18 7.38 27.82 27.82 0 0 1 1.34 8.82 27.02 27.02 0 0 1-7.7 19.8 26 26 0 0 1-19.36 7.8q-14.76 0-22.46-10.7a24.62 24.62 0 0 1-3.72-8 12.68 12.68 0 1 0-24.16 7.54 52.38 52.38 0 0 0 13.88 21.84 47.88 47.88 0 0 0 24 11.66v13.1a13.08 13.08 0 1 0 26.18 0v-14a50.7 50.7 0 0 0 23.36-13.18q15.18-14.88 15.18-37.66a44.74 44.74 0 0 0-9.52-28.74z" fill="#F08C00" p-id="3148"></path></svg>