<?xml version="1.0" standalone="no"?><!DOCTYPE svg PUBLIC "-//W3C//DTD SVG 1.1//EN" "http://www.w3.org/Graphics/SVG/1.1/DTD/svg11.dtd"><svg t="1571119563343" class="icon" viewBox="0 0 1024 1024" version="1.1" xmlns="http://www.w3.org/2000/svg" p-id="2679" xmlns:xlink="http://www.w3.org/1999/xlink" width="200" height="200"><defs><style type="text/css"></style></defs><path d="M728.16 113H367.14a72.2 72.2 0 0 0-72.14 72.28v571.44a72.2 72.2 0 0 0 72.14 72.28h439.72a72.2 72.2 0 0 0 72.14-72.28v-492.6z" fill="#DEE2E6" p-id="2680"></path><path d="M878.52 264.24h-115.08a35.78 35.78 0 0 1-35.74-35.82V113z" fill="#868E96" p-id="2681"></path><path d="M399.08 260.8m18.32 0l247.22 0q18.32 0 18.32 18.32l0 0.06q0 18.32-18.32 18.32l-247.22 0q-18.32 0-18.32-18.32l0-0.06q0-18.32 18.32-18.32Z" fill="#ADB5BD" p-id="2682"></path><path d="M399.08 388.7m18.32 0l339.22 0q18.32 0 18.32 18.32l0 0.06q0 18.32-18.32 18.32l-339.22 0q-18.32 0-18.32-18.32l0-0.06q0-18.32 18.32-18.32Z" fill="#ADB5BD" p-id="2683"></path><path d="M399.08 516.6m18.32 0l339.22 0q18.32 0 18.32 18.32l0 0.06q0 18.32-18.32 18.32l-339.22 0q-18.32 0-18.32-18.32l0-0.06q0-18.32 18.32-18.32Z" fill="#ADB5BD" p-id="2684"></path><path d="M399.08 644.5m18.32 0l339.22 0q18.32 0 18.32 18.32l0 0.06q0 18.32-18.32 18.32l-339.22 0q-18.32 0-18.32-18.32l0-0.06q0-18.32 18.32-18.32Z" fill="#ADB5BD" p-id="2685"></path><path d="M511.32 500.6c-0.4 36.14 2.16 72.2 1.56 100.52 0.3 43.9 0.7 80-6.68 115.68-10.74 51.82-38.66 94.26-76.86 130.92a326.7 326.7 0 0 1-91.64 61.24 18.88 18.88 0 0 1-17.24 0c-65.54-30.18-116.4-75.12-149.56-138.12-14.2-26.94-20.48-55.86-23.42-85.64-4.74-48.32-1.28-96.68-1.06-145.04 0-13.4 0.9-26.86 0.84-40.32 0-4.54 1.76-6.72 6.2-8q85.82-26 171.58-52.16a16.46 16.46 0 0 1 10 0.54q84.34 25.72 168.76 51.24c5.18 1.44 7.58 3.52 7.52 9.14z" fill="#20C997" p-id="2686"></path><path d="M329.18 868.82c-55.18-27.3-95.06-65.34-121.76-116-10.16-19.3-16.24-42-19.14-71.38-3.18-32.36-2.4-64.94-1.58-99.46 0.32-13.58 0.66-27.64 0.72-41.64 0-5.64 0.2-11.34 0.4-17.38C230.4 510 276 496.12 329.16 480c50 15.22 95.8 29.2 141.24 42.92 0.16 11 0.5 21.8 0.82 32.4 0.5 16.44 0.96 32 0.68 45.06v3.88c0.28 41.3 0.5 74-5.9 104.84-8.28 40-29.72 76.16-65.54 110.54a279 279 0 0 1-71.28 49.18z" fill="#12B886" p-id="2687"></path><path d="M296.12 731.3a15.42 15.42 0 0 1-10.94-4.54l-34-34a15.48 15.48 0 0 1 21.82-21.96l23.12 23.2 88.88-88.98a15.48 15.48 0 0 1 21.86 21.9l-99.82 100a15.4 15.4 0 0 1-10.92 4.38z" fill="#FFFFFF" p-id="2688"></path></svg>