<?xml version="1.0" standalone="no"?><!DOCTYPE svg PUBLIC "-//W3C//DTD SVG 1.1//EN" "http://www.w3.org/Graphics/SVG/1.1/DTD/svg11.dtd"><svg t="1571119301920" class="icon" viewBox="0 0 1024 1024" version="1.1" xmlns="http://www.w3.org/2000/svg" p-id="1900" xmlns:xlink="http://www.w3.org/1999/xlink" width="200" height="200"><defs><style type="text/css"></style></defs><path d="M522 508m-392 0a392 392 0 1 0 784 0 392 392 0 1 0-784 0Z" fill="#FCC419" p-id="1901"></path><path d="M522 508m-312.76 0a312.76 312.76 0 1 0 625.52 0 312.76 312.76 0 1 0-625.52 0Z" fill="#FFD43B" p-id="1902"></path><path d="M589.12 422a21.48 21.48 0 0 1-27.34-4.76 38.74 38.74 0 0 0-9.7-8.68q-9.84-6.3-25.4-6.3-19.1 0-31.7 10.84a33.54 33.54 0 0 0-12.6 26.76q0 22.24 33.08 35.84l30.32 12.4q37 14.96 54.14 36.52t17.12 52.86q0 42-28 69.3t-69.84 27.54q-39.58 0-65.36-23.42a96.36 96.36 0 0 1-25.54-40.18 23.54 23.54 0 0 1 16.92-30.84 23.58 23.58 0 0 1 27.54 16.96 45.28 45.28 0 0 0 6.84 14.88q14.18 19.7 41.34 19.68a48 48 0 0 0 35.62-14.36q14.18-14.36 14.18-36.42a51.16 51.16 0 0 0-2.46-16.24 41.26 41.26 0 0 0-7.68-13.58 61.48 61.48 0 0 0-13.48-11.62 130 130 0 0 0-19.68-10.34l-29.32-12.2q-62.4-26.38-62.4-77.18 0-34.24 26.18-57.28t65.16-23.24a86 86 0 0 1 66.96 30 21.66 21.66 0 0 1-4.9 33.06z" fill="#F08C00" p-id="1903"></path><path d="M522 720.58a24 24 0 0 1-24-24v-27.42a24 24 0 1 1 48.16 0v27.34A24 24 0 0 1 522 720.58zM522 389.48a24 24 0 0 1-24-24V338a24 24 0 0 1 48 0v27.4a24 24 0 0 1-24 24.08z" fill="#F08C00" p-id="1904"></path><path d="M463.04 226.48a23.8 23.8 0 0 0-33.66 0l-93.12 93.08-141.02-140.98h74.36a23.8 23.8 0 1 0 0-47.58H135.46c-0.54 0-0.86 0.12-1.3 0.18l-1.02 0.16c-0.46 0-0.88 0.22-1.32 0.32l-0.94 0.24-1.24 0.44-0.96 0.36-1.1 0.52-1 0.48-1.02 0.6-1 0.6c-0.36 0.24-0.7 0.52-1.06 0.78l-0.82 0.62q-0.88 0.72-1.7 1.54-0.82 0.82-1.56 1.74c-0.22 0.28-0.42 0.56-0.64 0.84s-0.52 0.68-0.76 1.02-0.42 0.68-0.62 1.04-0.4 0.64-0.58 0.96-0.34 0.72-0.52 1.06-0.34 0.68-0.48 1.04-0.26 0.7-0.38 1.06-0.28 0.76-0.4 1.14-0.18 0.72-0.28 1.06-0.22 0.78-0.3 1.18-0.12 0.82-0.18 1.24-0.12 0.7-0.16 1.06c0 0.78-0.12 1.56-0.12 2.34V288a23.8 23.8 0 0 0 47.6 0v-75.78L319.44 370a23.8 23.8 0 0 0 33.66 0l110-110a23.78 23.78 0 0 0-0.06-33.52z" fill="#686F77" p-id="1905"></path></svg>