<?xml version="1.0" standalone="no"?><!DOCTYPE svg PUBLIC "-//W3C//DTD SVG 1.1//EN" "http://www.w3.org/Graphics/SVG/1.1/DTD/svg11.dtd"><svg t="1582265476779" class="icon" viewBox="0 0 1024 1024" version="1.1" xmlns="http://www.w3.org/2000/svg" p-id="1802" xmlns:xlink="http://www.w3.org/1999/xlink" width="200" height="200"><defs><style type="text/css"></style></defs><path d="M114 226m19.96 0l184.08 0q19.96 0 19.96 19.96l0 660.08q0 19.96-19.96 19.96l-184.08 0q-19.96 0-19.96-19.96l0-660.08q0-19.96 19.96-19.96Z" fill="#20C997" p-id="1803"></path><path d="M159.24 354.6a66.84 66.76 90 1 0 133.52 0 66.84 66.76 90 1 0-133.52 0Z" fill="#0CA678" p-id="1804"></path><path d="M159.24 790.88m13.64 0l106.26 0q13.64 0 13.64 13.64l0 0.04q0 13.64-13.64 13.64l-106.26 0q-13.64 0-13.64-13.64l0-0.04q0-13.64 13.64-13.64Z" fill="#0CA678" p-id="1805"></path><path d="M159.24 844.78m13.64 0l106.26 0q13.64 0 13.64 13.64l0 0.04q0 13.64-13.64 13.64l-106.26 0q-13.64 0-13.64-13.64l0-0.04q0-13.64 13.64-13.64Z" fill="#0CA678" p-id="1806"></path><path d="M402 118m19.96 0l184.08 0q19.96 0 19.96 19.96l0 660.08q0 19.96-19.96 19.96l-184.08 0q-19.96 0-19.96-19.96l0-660.08q0-19.96 19.96-19.96Z" fill="#FF6B6B" p-id="1807"></path><path d="M447.24 246.6a66.84 66.76 90 1 0 133.52 0 66.84 66.76 90 1 0-133.52 0Z" fill="#FA5252" p-id="1808"></path><path d="M447.24 682.88m13.64 0l106.26 0q13.64 0 13.64 13.64l0 0.04q0 13.64-13.64 13.64l-106.26 0q-13.64 0-13.64-13.64l0-0.04q0-13.64 13.64-13.64Z" fill="#FA5252" p-id="1809"></path><path d="M447.24 736.78m13.64 0l106.26 0q13.64 0 13.64 13.64l0 0.04q0 13.64-13.64 13.64l-106.26 0q-13.64 0-13.64-13.64l0-0.04q0-13.64 13.64-13.64Z" fill="#FA5252" p-id="1810"></path><path d="M688 184m19.96 0l184.08 0q19.96 0 19.96 19.96l0 660.08q0 19.96-19.96 19.96l-184.08 0q-19.96 0-19.96-19.96l0-660.08q0-19.96 19.96-19.96Z" fill="#329AF0" p-id="1811"></path><path d="M733.24 312.6a66.84 66.76 90 1 0 133.52 0 66.84 66.76 90 1 0-133.52 0Z" fill="#1C7CD6" p-id="1812"></path><path d="M733.24 748.88m13.64 0l106.26 0q13.64 0 13.64 13.64l0 0.04q0 13.64-13.64 13.64l-106.26 0q-13.64 0-13.64-13.64l0-0.04q0-13.64 13.64-13.64Z" fill="#1C7CD6" p-id="1813"></path><path d="M733.24 802.78m13.64 0l106.26 0q13.64 0 13.64 13.64l0 0.04q0 13.64-13.64 13.64l-106.26 0q-13.64 0-13.64-13.64l0-0.04q0-13.64 13.64-13.64Z" fill="#1C7CD6" p-id="1814"></path></svg>