<?xml version="1.0" standalone="no"?><!DOCTYPE svg PUBLIC "-//W3C//DTD SVG 1.1//EN" "http://www.w3.org/Graphics/SVG/1.1/DTD/svg11.dtd"><svg t="1571048226957" class="icon" viewBox="0 0 1024 1024" version="1.1" xmlns="http://www.w3.org/2000/svg" p-id="1571" xmlns:xlink="http://www.w3.org/1999/xlink" width="200" height="200"><defs><style type="text/css"></style></defs><path d="M812.137931 229.517241V35.310345H211.862069v194.206896H88.275862v759.172414h847.448276V229.517241h-123.586207z m35.310345 88.275862v300.137931h-35.310345V317.793103h35.310345zM300.137931 123.586207h423.724138v494.344827H300.137931V123.586207z m-88.275862 194.206896v300.137931h-35.310345V317.793103h35.310345z m-35.310345 582.62069V706.206897h670.896552v194.206896H176.551724z" fill="" p-id="1572"></path><path d="M651.828966 194.206897l-100.457932 202.504827h97.103449v40.783448h-111.051035V476.689655h111.051035v41.136552h-111.051035v81.566896h-51.023448v-81.566896H372.524138V476.689655h113.875862v-39.017931H372.524138v-40.783448h98.692414L372.171034 194.206897h58.262069l82.449656 174.786206 84.215172-174.786206h54.731035z" fill="#BDBCBC" p-id="1573"></path></svg>