<?xml version="1.0" standalone="no"?><!DOCTYPE svg PUBLIC "-//W3C//DTD SVG 1.1//EN" "http://www.w3.org/Graphics/SVG/1.1/DTD/svg11.dtd"><svg t="1570864182077" class="icon" viewBox="0 0 1024 1024" version="1.1" xmlns="http://www.w3.org/2000/svg" p-id="1567" xmlns:xlink="http://www.w3.org/1999/xlink" width="200" height="200"><defs><style type="text/css"></style></defs><path d="M260.766897 120.937931c-1.765517-2.118621-3.354483-4.06069-5.296552-6.17931-46.256552-48.198621-122.88-49.964138-171.078621-3.707587s-49.964138 122.88-3.707586 171.078621c1.942069 1.942069 3.884138 3.707586 5.826207 5.473104l174.256552-166.664828zM763.233103 120.937931c1.765517-2.118621 3.354483-4.06069 5.296552-6.17931 46.256552-48.198621 122.88-49.964138 171.078621-3.707587 48.198621 46.256552 49.964138 122.88 3.707586 171.078621-1.942069 1.942069-3.884138 3.707586-5.826207 5.473104l-174.256552-166.664828z" fill="" p-id="1568"></path><path d="M959.558621 862.278621l-104.518621-91.277242C905.710345 701.263448 935.724138 615.45931 935.724138 522.769655c0-233.577931-190.146207-423.724138-423.724138-423.724138s-423.724138 190.146207-423.724138 423.724138c0 92.689655 30.013793 178.317241 80.684138 248.231724l-104.518621 91.277242 58.085518 66.56 105.224827-91.983449c75.211034 68.148966 174.962759 109.815172 284.248276 109.815173 109.285517 0 209.037241-41.666207 284.248276-109.815173l105.224827 91.983449 58.085518-66.56zM176.551724 522.769655c0-185.026207 150.422069-335.448276 335.448276-335.448276s335.448276 150.422069 335.448276 335.448276-150.422069 335.448276-335.448276 335.448276-335.448276-150.422069-335.448276-335.448276z" fill="" p-id="1569"></path><path d="M664.011034 536.364138v-75.917241h-94.455172l84.921379-84.92138-55.790344-55.790345-87.04 87.04-87.04-87.04-55.790345 55.790345 84.921379 84.92138h-93.21931v75.917241h113.169655v37.782069h-113.69931v75.917241h113.69931v75.917242h75.917241v-75.917242h113.699311v-75.917241h-113.699311v-37.782069h114.405517z" fill="#BDBCBC" p-id="1570"></path></svg>