<?xml version="1.0" standalone="no"?><!DOCTYPE svg PUBLIC "-//W3C//DTD SVG 1.1//EN" "http://www.w3.org/Graphics/SVG/1.1/DTD/svg11.dtd"><svg t="1570864364751" class="icon" viewBox="0 0 1024 1024" version="1.1" xmlns="http://www.w3.org/2000/svg" p-id="1702" xmlns:xlink="http://www.w3.org/1999/xlink" width="200" height="200"><defs><style type="text/css"></style></defs><path d="M658.537931 123.586207H476.689655V35.310345h-88.275862v88.275862h-35.310345V35.310345h-88.275862v88.275862H88.275862v865.103448h847.448276V385.235862L658.537931 123.586207zM847.448276 900.413793H176.551724V211.862069h88.275862v35.310345h88.275862v-35.310345h35.310345v35.310345h88.275862v-35.310345h146.891035L847.448276 423.194483V900.413793z" fill="" p-id="1703"></path><path d="M264.827586 406.068966h88.275862v88.275862h-88.275862zM264.827586 547.310345h88.275862v88.275862h-88.275862zM264.827586 688.551724h88.275862v88.275862h-88.275862zM406.068966 406.068966h353.103448v88.275862H406.068966zM406.068966 547.310345h353.103448v88.275862H406.068966zM406.068966 688.551724h353.103448v88.275862H406.068966z" fill="#BDBCBC" p-id="1704"></path></svg>